# File created by Blade
# Date/Time:  Wed Sep 24 20:15:16 2014
# Frame Rate: 120.000 fps
#------------------------------------------------------
:FULLY-SPECIFIED
:DEGREES
881
root -6.609326 32.754525 -5.971788 18.639503 4.465910 -1.247741
Spine -18.612462 9.797287 -3.536028
Head -22.065826 -9.026515 15.071116
LeftShoulder -5.574295 16.931866 10.465378
LeftArm 26.532291 40.259352 -68.574802
LeftForeArm -0.210483 -0.000000 22.352421
LeftHand -22.368173 0.000000 -7.290345
LeftHandThumb1 -26.253704 0.000000 33.147579
RightShoulder -13.685678 16.353727 -11.545652
RightArm -5.685178 -58.703793 100.522800
RightForeArm -27.890696 -0.000000 13.555074
RightHand -9.662599 0.000000 26.334444
RightHandThumb1 -24.326973 -0.000000 -32.862282
LeftUpLeg -17.861626 6.326137 4.213549
LeftLeg 1.142817 -0.000000 -0.000000
LeftFoot -10.118757 6.597629 -18.476214
LeftToeBase 9.822636 -0.000000 -0.000000
RightUpLeg -18.005802 -5.951953 -0.333939
RightLeg 4.192920 -0.000000 -0.000000
RightFoot -8.683463 -4.960275 -14.122762
RightToeBase 0.824216 -0.000000 -0.000000
882
root -6.613885 32.753808 -5.975992 18.664641 4.430870 -1.259270
Spine -18.602518 9.796090 -3.534468
Head -22.145395 -8.960565 15.067242
LeftShoulder -5.580099 16.947496 10.485855
LeftArm 26.514968 40.215276 -68.563133
LeftForeArm -0.266896 -0.000000 22.362544
LeftHand -22.329561 0.000000 -7.258349
LeftHandThumb1 -26.253704 0.000000 33.147579
RightShoulder -13.718713 16.308411 -11.512893
RightArm -5.599445 -58.801668 100.469047
RightForeArm -27.723792 -0.000000 13.672931
RightHand -9.671862 -0.000000 26.156698
RightHandThumb1 -24.326973 -0.000000 -32.862282
LeftUpLeg -17.895633 6.297913 4.240739
LeftLeg 1.161627 -0.000000 -0.000000
LeftFoot -10.141399 6.647569 -18.526668
LeftToeBase 9.745714 -0.000000 -0.000000
RightUpLeg -18.054337 -5.962161 -0.311001
RightLeg 4.211790 -0.000000 -0.000000
RightFoot -8.695876 -4.908421 -14.135819
RightToeBase 0.830783 -0.000000 -0.000000
883
root -6.616196 32.752458 -5.978983 18.673409 4.385036 -1.260022
Spine -18.567239 9.810116 -3.534897
Head -22.205499 -8.936057 15.095303
LeftShoulder -5.599332 16.946969 10.485703
LeftArm 26.560773 40.234235 -68.488933
LeftForeArm -0.277834 -0.000000 22.324733
LeftHand -22.361834 -0.000000 -7.267005
LeftHandThumb1 -26.253704 0.000000 33.147579
RightShoulder -13.751498 16.260075 -11.480025
RightArm -5.477389 -58.939075 100.383829
RightForeArm -27.523228 -0.000000 13.819323
RightHand -9.786043 -0.000000 26.022549
RightHandThumb1 -24.326973 -0.000000 -32.862282
LeftUpLeg -17.908433 6.251776 4.256254
LeftLeg 1.182329 -0.000000 -0.000000
LeftFoot -10.198477 6.739718 -18.542877
LeftToeBase 9.764257 -0.000000 -0.000000
RightUpLeg -18.080833 -5.961039 -0.302649
RightLeg 4.223275 -0.000000 -0.000000
RightFoot -8.706203 -4.898729 -14.180907
RightToeBase 0.823357 -0.000000 -0.000000
884
root -6.620417 32.751481 -5.982576 18.688688 4.345195 -1.265393
Spine -18.561864 9.824514 -3.552465
Head -22.238959 -8.933066 15.114450
LeftShoulder -5.588793 16.963448 10.517748
LeftArm 26.653166 40.272436 -68.391459
LeftForeArm -0.336039 -0.000000 22.244680
LeftHand -22.325551 0.000000 -7.267058
LeftHandThumb1 -26.253704 0.000000 33.147579
RightShoulder -13.762831 16.222530 -11.448330
RightArm -5.375493 -59.092924 100.330598
RightForeArm -27.258345 -0.000000 13.992616
RightHand -9.752618 -0.000000 25.884180
RightHandThumb1 -24.326973 -0.000000 -32.862282
LeftUpLeg -17.939203 6.235067 4.271489
LeftLeg 1.219952 -0.000000 -0.000000
LeftFoot -10.242504 6.790060 -18.549461
LeftToeBase 9.773094 -0.000000 -0.000000
RightUpLeg -18.112511 -5.967229 -0.286410
RightLeg 4.228628 -0.000000 -0.000000
RightFoot -8.723966 -4.865484 -14.223405
RightToeBase 0.808262 -0.000000 -0.000000
885
root -6.624783 32.750939 -5.984542 18.695365 4.309957 -1.288113
Spine -18.544593 9.854519 -3.531262
Head -22.250967 -8.948762 15.140988
LeftShoulder -5.594404 16.946909 10.506642
LeftArm 26.682114 40.266370 -68.357038
LeftForeArm -0.243408 -0.000000 22.165127
LeftHand -22.328880 -0.000000 -7.240839
LeftHandThumb1 -26.253704 0.000000 33.147579
RightShoulder -13.790830 16.183765 -11.427661
RightArm -5.220672 -59.281584 100.225754
RightForeArm -26.893689 -0.000000 14.142114
RightHand -9.749372 -0.000000 25.735696
RightHandThumb1 -24.326973 -0.000000 -32.862282
LeftUpLeg -17.953294 6.206361 4.311810
LeftLeg 1.246900 -0.000000 -0.000000
LeftFoot -10.303256 6.849272 -18.559555
LeftToeBase 9.841448 -0.000000 -0.000000
RightUpLeg -18.136440 -6.018750 -0.243204
RightLeg 4.237657 -0.000000 -0.000000
RightFoot -8.750110 -4.757850 -14.231818
RightToeBase 0.859344 -0.000000 -0.000000
886
root -6.627464 32.750146 -5.985615 18.700336 4.287189 -1.298232
Spine -18.539820 9.877979 -3.528525
Head -22.241646 -8.989238 15.160055
LeftShoulder -5.573240 16.934599 10.516526
LeftArm 26.796986 40.354220 -68.235317
LeftForeArm -0.295800 -0.000000 22.028087
LeftHand -22.313052 0.000000 -7.284287
LeftHandThumb1 -26.253704 0.000000 33.147579
RightShoulder -13.818115 16.142338 -11.416856
RightArm -5.068473 -59.448378 100.124249
RightForeArm -26.656520 -0.000000 14.278278
RightHand -9.578399 -0.000000 25.495466
RightHandThumb1 -24.326973 -0.000000 -32.862282
LeftUpLeg -17.968137 6.154175 4.341732
LeftLeg 1.279611 -0.000000 -0.000000
LeftFoot -10.345428 6.910286 -18.567623
LeftToeBase 9.823442 -0.000000 -0.000000
RightUpLeg -18.141771 -6.063598 -0.215096
RightLeg 4.221441 -0.000000 -0.000000
RightFoot -8.758030 -4.683231 -14.236464
RightToeBase 0.858517 -0.000000 -0.000000
887
root -6.628694 32.750089 -5.986871 18.702807 4.254853 -1.295941
Spine -18.531676 9.898054 -3.536953
Head -22.221826 -9.021070 15.187457
LeftShoulder -5.564682 16.894288 10.510962
LeftArm 26.914126 40.479306 -68.089556
LeftForeArm -0.369311 0.000000 21.872095
LeftHand -22.310274 -0.000000 -7.314768
LeftHandThumb1 -26.253704 0.000000 33.147579
RightShoulder -13.838930 16.085476 -11.395201
RightArm -4.840401 -59.620929 99.945038
RightForeArm -26.049645 -0.000000 14.494860
RightHand -9.861810 -0.000000 25.426129
RightHandThumb1 -24.326973 -0.000000 -32.862282
LeftUpLeg -17.947971 6.043887 4.380178
LeftLeg 1.251251 -0.000000 -0.000000
LeftFoot -10.370202 7.017831 -18.675672
LeftToeBase 9.806316 -0.000000 -0.000000
RightUpLeg -18.144000 -6.092161 -0.211018
RightLeg 4.206546 -0.000000 -0.000000
RightFoot -8.765939 -4.613158 -14.230480
RightToeBase 0.816564 -0.000000 -0.000000
888
root -6.634219 32.749226 -5.986347 18.694093 4.242542 -1.324403
Spine -18.523413 9.917519 -3.514173
Head -22.169381 -9.075471 15.224288
LeftShoulder -5.542062 16.860944 10.515869
LeftArm 27.028992 40.577544 -67.962063
LeftForeArm -0.393034 -0.000000 21.704578
LeftHand -22.286247 -0.000000 -7.346344
LeftHandThumb1 -26.253704 0.000000 33.147579
RightShoulder -13.857205 16.067771 -11.382472
RightArm -4.673707 -59.721235 99.811689
RightForeArm -25.726834 -0.000000 14.622074
RightHand -9.837553 -0.000000 25.045010
RightHandThumb1 -24.326973 -0.000000 -32.862282
LeftUpLeg -17.975074 6.104242 4.398955
LeftLeg 1.325138 -0.000000 -0.000000
LeftFoot -10.414658 6.980985 -18.642470
LeftToeBase 9.798992 -0.000000 -0.000000
RightUpLeg -18.121369 -6.123092 -0.163154
RightLeg 4.165808 -0.000000 -0.000000
RightFoot -8.753326 -4.556716 -14.237820
RightToeBase 0.797991 -0.000000 -0.000000
889
root -6.640507 32.749157 -5.986946 18.701229 4.254914 -1.360023
Spine -18.539147 9.921251 -3.477967
Head -22.099970 -9.156151 15.273847
LeftShoulder -5.517114 16.832982 10.513225
LeftArm 27.147922 40.689649 -67.824725
LeftForeArm -0.445713 -0.000000 21.564267
LeftHand -22.306290 -0.000000 -7.362163
LeftHandThumb1 -26.253704 0.000000 33.147579
RightShoulder -13.884130 16.024837 -11.380978
RightArm -4.481669 -59.763162 99.637134
RightForeArm -25.309658 0.000000 14.806593
RightHand -9.816982 -0.000000 24.803862
RightHandThumb1 -24.326973 -0.000000 -32.862282
LeftUpLeg -18.001724 6.076696 4.459042
LeftLeg 1.359292 -0.000000 -0.000000
LeftFoot -10.429967 6.971204 -18.769354
LeftToeBase 9.683742 -0.000000 -0.000000
RightUpLeg -18.104639 -6.197289 -0.098308
RightLeg 4.100813 -0.000000 -0.000000
RightFoot -8.736991 -4.443024 -14.228960
RightToeBase 0.782106 -0.000000 -0.000000
